<?xml version="1.0" encoding="utf-8"?>
<!-- Generator: Adobe Illustrator 22.1.0, SVG Export Plug-In . SVG Version: 6.00 Build 0)  -->
<svg version="1.1" id="Layer_1" xmlns="http://www.w3.org/2000/svg" xmlns:xlink="http://www.w3.org/1999/xlink" x="0px" y="0px"
	 viewBox="0 0 612 283.5" style="enable-background:new 0 0 612 283.5;" xml:space="preserve">
<style type="text/css">
	.st0{fill:#A0CE4E;}
</style>
<g>
	<g>
		<path class="st0" d="M265.8,118.8c0-4.3,0.6-8.4,1.9-12.1c1.3-3.8,3.1-7,5.6-9.8s5.5-5,9.1-6.6s7.7-2.4,12.2-2.4
			c4.6,0,8.8,0.8,12.4,2.4c3.7,1.6,6.8,3.8,9.3,6.6c2.5,2.8,4.5,6.2,5.9,10.1s2,8.2,2,12.9v41.9c0,1-0.2,1.9-0.5,2.7
			c-0.4,0.8-0.9,1.5-1.5,2.2c-0.6,0.6-1.4,1.1-2.2,1.4c-0.8,0.3-1.7,0.5-2.7,0.5s-1.9-0.2-2.7-0.5c-0.8-0.3-1.6-0.8-2.2-1.4
			c-0.6-0.6-1.1-1.3-1.5-2.2c-0.4-0.8-0.5-1.7-0.5-2.7V120c0-2.8-0.4-5.2-1.1-7.5c-0.7-2.2-1.7-4.2-3.1-5.7c-1.3-1.6-3-2.8-4.9-3.7
			c-1.9-0.9-4.1-1.3-6.5-1.3c-4.7,0-8.5,1.5-11.2,4.6c-2.7,3-4.1,7.5-4.1,13.5v42c0,1-0.2,1.9-0.5,2.7c-0.4,0.8-0.9,1.5-1.5,2.2
			c-0.6,0.6-1.4,1.1-2.2,1.4c-0.8,0.3-1.8,0.5-2.7,0.5c-1,0-1.9-0.2-2.7-0.5c-0.8-0.3-1.6-0.8-2.2-1.4c-0.6-0.6-1.1-1.3-1.5-2.2
			c-0.4-0.8-0.5-1.7-0.5-2.7v-43.1C265.7,118.8,265.8,118.8,265.8,118.8z"/>
		<path class="st0" d="M337.7,116.2c0-0.9,0.2-1.8,0.5-2.6c0.3-0.8,0.8-1.5,1.4-2.1s1.3-1.1,2.1-1.4c0.8-0.3,1.7-0.5,2.6-0.5
			s1.8,0.2,2.6,0.5c0.8,0.3,1.5,0.8,2.2,1.4s1.1,1.3,1.5,2.1c0.4,0.8,0.5,1.7,0.5,2.6v24c0,2.1,0.4,4.1,1.2,5.9
			c0.8,1.8,1.8,3.4,3.2,4.8c1.4,1.4,2.9,2.4,4.8,3.2c1.8,0.8,3.8,1.2,5.9,1.2s4-0.4,5.7-1.2s3.2-1.9,4.4-3.2c1.2-1.4,2.1-3,2.8-4.8
			c0.6-1.8,1-3.8,1-6v-23.9c0-0.9,0.2-1.8,0.5-2.6c0.4-0.8,0.9-1.5,1.5-2.1s1.4-1.1,2.2-1.4c0.8-0.3,1.7-0.5,2.6-0.5
			s1.8,0.2,2.6,0.5c0.8,0.3,1.5,0.8,2.1,1.4s1.1,1.3,1.4,2.1c0.3,0.8,0.5,1.7,0.5,2.6v23.9c0,4-0.7,7.7-2.1,11.1
			c-1.4,3.5-3.3,6.5-5.7,9.1s-5.3,4.7-8.6,6.2c-3.3,1.5-7,2.2-10.9,2.2c-4,0-7.7-0.7-11.1-2.2c-3.5-1.5-6.5-3.6-9.1-6.2
			c-2.6-2.6-4.6-5.6-6.1-9.1s-2.2-7.2-2.2-11.1V116.2z"/>
		<path class="st0" d="M404.3,140.6c0-4.3,0.8-8.3,2.5-12.1c1.6-3.8,3.9-7.1,6.7-9.9c2.8-2.8,6.1-5,9.9-6.7c3.8-1.6,7.8-2.5,12-2.5
			h0.1c2.2,0,3.9,0.6,5.2,1.9c1.2,1.3,1.8,2.9,1.8,4.8c0,1-0.2,1.9-0.5,2.7c-0.4,0.8-0.9,1.5-1.5,2.1s-1.4,1.1-2.2,1.4
			c-0.8,0.3-1.8,0.5-2.7,0.5h-0.3c-2.3,0-4.5,0.5-6.6,1.4s-3.9,2.1-5.5,3.7s-2.8,3.4-3.8,5.4c-1,2.1-1.4,4.3-1.5,6.7v21.2
			c0,0.9-0.2,1.8-0.5,2.6s-0.8,1.5-1.4,2.1s-1.3,1.1-2.1,1.4c-0.8,0.3-1.7,0.5-2.5,0.5c-0.9,0-1.8-0.2-2.6-0.5
			c-0.8-0.3-1.6-0.8-2.2-1.4c-0.6-0.6-1.2-1.3-1.5-2.1c-0.4-0.8-0.5-1.7-0.5-2.6v-20.6L404.3,140.6L404.3,140.6z"/>
		<path class="st0" d="M449.2,98.7c0-1,0.2-1.9,0.5-2.7c0.4-0.8,0.9-1.5,1.5-2.2c0.6-0.6,1.3-1.1,2.2-1.5c0.8-0.4,1.7-0.5,2.6-0.5
			s1.8,0.2,2.7,0.5c0.8,0.3,1.6,0.8,2.2,1.5c0.6,0.6,1.2,1.4,1.5,2.2c0.4,0.8,0.6,1.7,0.6,2.7v9.8h21.3c0.9,0,1.8,0.2,2.6,0.5
			c0.8,0.4,1.5,0.8,2.2,1.5c0.6,0.6,1.1,1.3,1.5,2.2c0.4,0.8,0.5,1.7,0.5,2.6s-0.2,1.7-0.5,2.5c-0.4,0.8-0.8,1.5-1.5,2.1
			c-0.6,0.6-1.3,1.1-2.2,1.4c-0.8,0.3-1.7,0.5-2.6,0.5H463v17.7c0,2.2,0.4,4.3,1.2,6.2c0.8,1.9,1.9,3.6,3.3,5s3.1,2.6,5,3.4
			c1.9,0.8,4,1.2,6.3,1.2c2,0,3.8-0.3,5.5-0.8c1.7-0.6,3.3-1.5,4.7-2.7c0.8-0.7,1.6-1.2,2.4-1.7c0.8-0.4,1.7-0.6,2.7-0.6
			c0.8,0,1.5,0.2,2.2,0.5s1.4,0.8,1.9,1.4c0.6,0.6,1,1.3,1.4,2.1c0.3,0.8,0.5,1.6,0.5,2.5c0,1.1-0.2,2.1-0.6,3c-0.4,1-1,1.8-1.8,2.6
			c-2.5,2.4-5.4,4.2-8.6,5.5c-3.2,1.2-6.7,1.8-10.3,1.8c-4.1,0-8-0.8-11.6-2.3s-6.7-3.6-9.4-6.3c-2.7-2.6-4.8-5.8-6.3-9.3
			c-1.6-3.6-2.3-7.4-2.3-11.6L449.2,98.7L449.2,98.7z"/>
		<path class="st0" d="M507,140.6c0-4.3,0.8-8.3,2.5-12.1c1.6-3.8,3.9-7.1,6.7-9.9s6.1-5,9.9-6.7c3.8-1.6,7.8-2.5,12-2.5h0.1
			c2.2,0,3.9,0.6,5.2,1.9c1.2,1.3,1.8,2.9,1.8,4.8c0,1-0.2,1.9-0.5,2.7c-0.4,0.8-0.9,1.5-1.5,2.1s-1.4,1.1-2.2,1.4s-1.8,0.5-2.7,0.5
			H538c-2.3,0-4.5,0.5-6.6,1.4s-3.9,2.1-5.5,3.7s-2.8,3.4-3.8,5.4c-1,2.1-1.4,4.3-1.5,6.7v21.2c0,0.9-0.2,1.8-0.5,2.6
			s-0.8,1.5-1.4,2.1c-0.6,0.6-1.3,1.1-2.1,1.4c-0.8,0.3-1.7,0.5-2.5,0.5c-0.9,0-1.8-0.2-2.6-0.5c-0.8-0.3-1.6-0.8-2.2-1.4
			c-0.6-0.6-1.2-1.3-1.5-2.1c-0.4-0.8-0.5-1.7-0.5-2.6v-20.6L507,140.6L507,140.6z"/>
	</g>
	<g>
		<path class="st0" d="M204.3,140c0.1-0.1,0.3-0.2,0.4-0.3"/>
		<g>
			<path class="st0" d="M218.1,123.1C218,123.1,218,123.1,218.1,123.1c-0.8-8.6-7.9-15.3-16.7-15.3c-2.3,0-4.4,0.5-6.4,1.3
				C189.2,96.7,175.3,88,159.1,88s-30,8.7-35.9,21.1c-2-0.8-4.1-1.3-6.4-1.3c-8.7,0-15.9,6.7-16.6,15.3c0,0,0,0-0.1,0
				c-12.5,0-22.6,10.1-22.6,22.6c0,12.6,9.9,22.6,23.4,22.6h39c-1.4-0.2-2.9-0.5-4.4-0.9c-6.7-1.6-13.5-4.3-18.7-8.7
				c-3.1-0.8-6.2-2.3-9.1-4.8c-0.5-0.6,0-1.2,0.5-1.8c1.7,1.4,3.5,2.5,5.4,3.3l3.8,1.2c4.7,1,9.7,0.5,14.6-0.6
				c0.2,0,0.3-0.1,0.5-0.1c0.3-0.4,0.6-0.8,0.8-1.2c0.3-0.5,0.6-1,0.8-1.5c0.2,0,0.4,0.1,0.6,0.1h0.2h0.2c0.2,0,0.3,0,0.5,0
				s0.3,0,0.5,0s0.3,0,0.5,0h0.5h0.5h-0.5h-0.5c-0.2,0-0.3,0-0.5,0s-0.3,0-0.5-0.1c-0.2,0-0.3,0-0.5-0.1h-0.2h-0.2
				c-0.3-0.1-0.6-0.1-0.9-0.2c-0.3-0.1-0.6-0.2-0.9-0.3c-0.3-0.1-0.6-0.3-0.8-0.4c-0.3-0.1-0.5-0.3-0.8-0.5
				c-0.2-0.2-0.5-0.4-0.7-0.6c-0.4-0.4-0.8-0.9-1.1-1.4s-0.6-1.1-0.8-1.6c-0.2-0.6-0.3-1.2-0.4-1.8c0-0.3-0.1-0.6-0.1-0.9l0,0
				c0.1,0.1,0.2,0.2,0.3,0.3c0.2,0.1,0.4,0.3,0.5,0.4c0.2,0.1,0.4,0.2,0.6,0.3c0.4,0.2,0.8,0.4,1.2,0.5s0.9,0.2,1.3,0.2
				c0.2,0,0.4,0,0.7,0c0.2,0,0.4,0,0.7,0c0.2,0,0.4-0.1,0.6-0.1c0.1,0,0.2,0,0.3-0.1c0.1,0,0.2-0.1,0.3-0.1s0.2-0.1,0.3-0.1
				s0.2-0.1,0.3-0.1c0.2-0.1,0.4-0.1,0.6-0.2c0.1,0,0.2-0.1,0.3-0.1s0.2-0.1,0.3-0.1l0.3-0.1l0.3-0.2l-0.3,0.1l-0.3,0.1l-0.3,0.1
				c-0.1,0-0.2,0.1-0.3,0.1c-0.2,0-0.3,0.1-0.5,0.1c0-0.4,0.1-0.7,0.1-1.1c0.1-0.5,0.2-1,0.4-1.5s0.5-0.9,0.9-1.2s0.8-0.5,1.3-0.6
				s1-0.1,1.6-0.1c0.5,0,1.1,0.1,1.6,0.2c0.3,0,0.5,0.1,0.8,0.2c-0.1,0.1-0.3,0.2-0.4,0.3c-0.3,0.3-0.6,0.7-0.8,1.2
				s-0.2,0.9-0.2,1.4s0.2,0.9,0.4,1.3l0.1,0.1c0,0.1,0,0.1,0.1,0.1c0,0.1,0.1,0.2,0.1,0.3c0.1,0.2,0.1,0.4,0.1,0.6
				c0.1,0.4,0.1,0.8,0.1,1.2s-0.1,0.8-0.2,1.2c0,0.2-0.1,0.4-0.2,0.6c-0.1,0.2-0.1,0.4-0.2,0.6c-0.1,0.2-0.2,0.4-0.3,0.6
				c-0.1,0.2-0.2,0.4-0.3,0.5c-0.2,0.4-0.5,0.7-0.8,1s-0.6,0.6-0.9,0.9c-0.2,0.2-0.4,0.3-0.6,0.4c3.7-0.7,7-2.3,10.4-3.7l0,0
				c-0.1-0.1-0.3-0.2-0.4-0.2c-0.1-0.1-0.3-0.2-0.4-0.2c-0.1-0.1-0.3-0.2-0.4-0.3l-0.2-0.1l-0.2-0.1c-0.3-0.2-0.5-0.4-0.7-0.6
				c-0.2-0.2-0.5-0.4-0.7-0.6c-0.2-0.2-0.4-0.5-0.6-0.7c-0.2-0.2-0.4-0.5-0.5-0.8c-0.2-0.3-0.3-0.5-0.4-0.8
				c-0.2-0.6-0.4-1.2-0.5-1.8s-0.1-1.2,0-1.8c0-0.6,0.2-1.2,0.3-1.8c0.1-0.3,0.2-0.6,0.3-0.9l0,0c0.1,0.1,0.1,0.3,0.2,0.4
				c0.1,0.2,0.2,0.4,0.4,0.6c0.1,0.2,0.3,0.4,0.4,0.5c0.3,0.3,0.6,0.7,1,0.9c0.4,0.3,0.7,0.5,1.1,0.7c0.2,0.1,0.4,0.2,0.6,0.3
				c0.2,0.1,0.4,0.2,0.6,0.2c0.2,0.1,0.4,0.1,0.6,0.2c0.1,0,0.2,0,0.3,0.1c0.1,0,0.2,0,0.3,0.1c0.1,0,0.2,0,0.3,0s0.2,0,0.3,0
				c0.2,0,0.4,0,0.7,0c0.1,0,0.2,0,0.3,0s0.2,0,0.3,0h0.3h0.3h-0.3h-0.3h-0.3c-0.1,0-0.2,0-0.3,0c-0.2,0-0.4-0.1-0.6-0.1
				c-0.1,0-0.2,0-0.3-0.1c-0.1,0-0.2,0-0.3-0.1v-0.1c0.1-0.5,0.2-1.1,0.4-1.6s0.5-0.9,0.9-1.3c0.4-0.3,0.9-0.5,1.4-0.7
				c0.5-0.1,1-0.1,1.6-0.1c0.5,0,1.1,0.1,1.6,0.2c0.3,0,0.5,0.1,0.8,0.2c-0.1,0.1-0.3,0.2-0.4,0.3c-0.3,0.3-0.6,0.7-0.8,1.2
				s-0.2,1-0.2,1.4c0,0.5,0.2,0.9,0.4,1.4l0.1,0.1c0,0.1,0,0.1,0.1,0.1c0,0.1,0.1,0.2,0.1,0.3c0.1,0.2,0.1,0.4,0.1,0.6
				c0.1,0.4,0.1,0.8,0.1,1.2s-0.1,0.8-0.2,1.2c0,0.2-0.1,0.4-0.2,0.6c-0.1,0.2-0.1,0.4-0.2,0.6c-0.1,0.2-0.2,0.4-0.3,0.6
				c-0.1,0.2-0.2,0.4-0.3,0.5c-0.2,0.4-0.5,0.7-0.8,1s-0.6,0.6-0.9,0.9c-0.3,0.3-0.7,0.5-1,0.8c-0.7,0.5-1.5,0.9-2.3,1.2
				c-0.4,0.2-0.8,0.3-1.2,0.5c-0.4,0.1-0.8,0.3-1.3,0.4l-4.4,2.8l0,0c0.4-0.3,0.8-0.7,1.2-1.1c0.4-0.4,0.8-0.8,1.2-1.2
				c0.7-0.8,1.4-1.7,2-2.7c-3.2,0.9-6.6,1.5-9.7,3c-1.7,0.5-3.3,1.1-5,1.5c-0.6,0.2-1.1,0.3-1.7,0.4l-2.2,1.4l0,0
				c0.4-0.3,0.8-0.7,1.2-1c0.1-0.1,0.1-0.1,0.2-0.2c-3.2,0.7-6.3,1.1-9.5,0.9c0.7,0.5,1.4,0.9,2.1,1.3c-0.1-0.2-0.1-0.5-0.1-0.6
				c1.9,1.2,5.6,3.4,12.6,3.4c1.3,0,2.6,0.1,3.9,0.1c9.8,0.4,18.7-2.9,26.5-8.5c-2-0.9-3.3-2.2-4.2-3.5c-0.9-0.5-1.7-1.1-2.6-1.7
				c0.5,0,0.5-0.6,0.9-0.6c0.3,0.2,0.6,0.3,0.8,0.5c-0.4-1.5-0.3-2.9,0.2-4.1c1.4-3-1.4-4.2-1.4-4.2c6.4-1.6,7.4,1,7.5,5.2
				c-0.1-0.2-0.2-0.3-0.3-0.5c0-0.1-0.1-0.2-0.1-0.3s-0.1-0.2-0.1-0.3c-0.1-0.2-0.2-0.4-0.3-0.6l-0.1-0.3l-0.1-0.3
				c0,0.1,0,0.2,0.1,0.3l0.1,0.3c0.1,0.2,0.1,0.4,0.2,0.6c0.1,0.2,0.1,0.4,0.2,0.6c0.1,0.2,0.2,0.4,0.3,0.6c0.1,0.2,0.2,0.4,0.3,0.6
				c0.1,0.1,0.1,0.2,0.2,0.3c0.1,0.1,0.1,0.2,0.2,0.3c0.2,0.4,0.5,0.7,0.8,1c0.1,0.2,0.3,0.3,0.5,0.4c0.2,0.1,0.3,0.3,0.5,0.4
				c0.3,0.3,0.7,0.5,1.1,0.7c0.2,0.1,0.4,0.2,0.6,0.3c0.1,0,0.2,0.1,0.2,0.1c1.1-1,2.3-2.1,3.3-3.2c-0.9,1.7-1.9,3.2-3,4.6
				c5.1,0.1,10.3-1.2,15-2.8c0.9-0.2,1.7-0.4,2.6-0.6c0.1,0,0.3,0.1,0.4,0.1c-0.9,0.7-1.8,1.2-2.8,1.7c-5.1,2-11,3.6-16.7,3.3
				c-0.3,0.3-0.7,0.7-1,1c1,1.6,1.9,2.3,1.9,2.3l-2.2-1.2c-0.3-0.1-0.5-0.1-0.8-0.2c-7.4,6.4-17.7,8.7-27,9.2
				c-1.3,0.1-3.8,0.4-5.2,0.3c1.3,0.3,2.6,0.6,3.9,0.9c12.8,2.8,26.1,2.2,38.6-2.6c1.4-0.4,2.9-1,4.3-1.6c9.3-4,17.9-11.5,21.8-22.1
				c-15.3,10.9-28.7,6.2-32.9-2.2c-2.7-5.3-6.8-5.1-9.1-4.5l0,0c0.2,0.3,0.2,0.6,0.4,0.9c0.1,0.2,0.3,0.3,0.5,0.5s0.2,0.5,0.1,0.7
				c-0.1,0.2-0.3,0.2-0.5,0.1c-0.2-0.1-0.3-0.2-0.4-0.4c0-0.1-0.1-0.2-0.1-0.2c-0.1-0.1-0.1-0.1-0.2-0.1c-0.3-0.2-0.2-0.8-0.5-0.9
				c-0.1-0.1-0.3-0.1-0.4-0.1l0,0c-0.4,0.1-0.6,0.3-0.6,0.3c0.1-0.2,0.2-0.3,0.2-0.5h-0.1c-0.2-0.1-0.4-0.1-0.6-0.2
				c-0.1,0-0.2-0.1-0.3-0.2c-0.2,0-0.4,0.3-0.6,0.3l-0.1-0.1c-0.1-0.2-0.1-0.4-0.1-0.6c0-0.2,0.2-0.4,0.4-0.5s0.4,0,0.5,0.2
				c0,0.1,0.1,0.1,0.1,0.1c0.1,0,0.2-0.1,0.3-0.1c0.3-0.1,0.5,0.2,0.7,0.4c6.7-13.6,13.3-11.9,21.1-6c-0.1,0-0.2,0-0.4,0.1
				c-0.5,0.1-1.1,0.2-1.6,0.2c-0.3,0-0.5,0.1-0.8,0.1s-0.5,0-0.8,0.1c-0.5,0-1.1,0.1-1.6,0.1h-0.8h-0.8c0.3,0,0.5,0.1,0.8,0.1
				l0.8,0.1c0.5,0.1,1.1,0.1,1.6,0.1s1.1,0,1.6,0s1.1,0,1.6-0.1c0.5,0,1.1-0.1,1.6-0.2c0.3,0,0.5-0.1,0.8-0.1
				c0.3-0.1,0.5-0.1,0.8-0.2c1.1-0.2,2.1-0.6,3.2-1c0.5-0.2,1-0.4,1.5-0.7c0.5-0.2,1-0.5,1.5-0.8c1-0.6,1.9-1.2,2.7-1.9
				c0.4-0.4,0.8-0.7,1.2-1.1s0.8-0.8,1.1-1.2c0.4-0.4,0.7-0.9,1-1.3c0.1-0.1,0.1-0.2,0.2-0.3c0.1,0.1,0.1,0.3,0.2,0.4
				c0.3,0.5,0.5,1,0.7,1.5s0.4,1,0.6,1.6c0.2,0.5,0.3,1.1,0.4,1.6c0.2,1.1,0.2,2.2,0.1,3.3c-0.1,0.6-0.2,1.1-0.3,1.7
				c-0.1,0.5-0.3,1.1-0.5,1.6s-0.4,1-0.7,1.5s-0.6,1-0.9,1.5c-0.2,0.2-0.3,0.5-0.5,0.7s-0.4,0.5-0.5,0.7l-0.3,0.3
				c-0.1,0.1-0.2,0.2-0.3,0.3c-0.2,0.2-0.4,0.4-0.6,0.6c-0.2,0.2-0.4,0.4-0.6,0.6l-0.6,0.6c-0.2,0.2-0.4,0.4-0.7,0.6l-0.7,0.6
				c-0.5,0.4-0.9,0.7-1.4,1.1l-0.7,0.5c-0.2,0.2-0.5,0.3-0.7,0.5c0.3-0.1,0.5-0.3,0.8-0.4c0.3-0.1,0.5-0.3,0.8-0.4
				c0.5-0.3,1-0.6,1.5-0.9c0.5-0.3,1-0.7,1.5-1l0.7-0.6c0.2-0.2,0.5-0.4,0.7-0.6c0.2-0.2,0.5-0.4,0.7-0.6c0.1-0.1,0.3-0.3,0.4-0.4
				c8.1,2.8,14.2,1.4,14.2,1.4l-6,2.4c-0.1,0.1-0.3,0.2-0.4,0.3c-2.4,13.1-13.2,20.4-23.8,24.5c-1.6,0.6-3.2,1.2-4.7,1.7
				c-3.8,1-7.7,1.9-11.6,2.4h52.6c13.4,0,23.4-10,23.4-22.6C240.7,133.2,230.6,123.1,218.1,123.1z M135,146.5
				C134.9,146.5,134.9,146.5,135,146.5c-0.1,0-0.2,0-0.3,0.1c-0.2,0-0.4,0.1-0.6,0.1c-0.2,0-0.4,0-0.6,0c-0.4,0-0.8,0-1.2-0.1
				c-0.2,0-0.4-0.1-0.6-0.1c-0.2,0-0.3-0.1-0.5-0.1c-0.1-0.5-0.1-1-0.1-1.5c0-0.6,0.1-1.2,0.2-1.8c0.1-0.3,0.1-0.6,0.2-0.9l0,0
				c0.1,0.1,0.1,0.3,0.2,0.4c0.1,0.2,0.2,0.4,0.4,0.6c0.1,0.2,0.3,0.4,0.4,0.5c0.3,0.3,0.6,0.6,1,0.9c0.4,0.3,0.7,0.5,1.1,0.7
				c0.2,0.1,0.3,0.1,0.5,0.2C135,145.7,135,146.1,135,146.5z M167.3,144.4c0.2,0,0.4,0.1,0.6,0.1c0.4,0.1,0.9,0.1,1.3,0.1
				c0.2,0,0.4,0,0.6,0c0.2,0,0.4-0.1,0.6-0.1c0.2,0,0.4-0.1,0.6-0.2h0.1c0,0.1,0,0.1,0,0.2c0,0.2-0.1,0.4-0.1,0.6
				c-0.1,0.2-0.1,0.4-0.2,0.6c-0.1,0.2-0.2,0.4-0.3,0.6c-0.2,0.4-0.5,0.7-0.8,1c-0.1,0.2-0.3,0.3-0.5,0.4c-0.2,0.1-0.4,0.3-0.5,0.4
				c-0.2,0.1-0.4,0.2-0.6,0.3l0,0c-0.1-0.1-0.2-0.2-0.3-0.3c-0.1-0.2-0.3-0.3-0.4-0.5c-0.1-0.1-0.2-0.2-0.2-0.3c0-0.2,0-0.4,0-0.6
				c0-0.5,0-1,0-1.5C167.3,144.9,167.2,144.6,167.3,144.4C167.2,144.4,167.3,144.4,167.3,144.4z"/>
			<path class="st0" d="M153.1,141.3c0-0.2-0.2-0.4-0.4-0.4s-0.4,0.2-0.4,0.4s0.2,0.4,0.4,0.4C153,141.7,153.1,141.5,153.1,141.3z"
				/>
			<path class="st0" d="M139.1,143c0-0.2-0.2-0.4-0.4-0.4s-0.4,0.2-0.4,0.4s0.2,0.4,0.4,0.4C139,143.4,139.1,143.2,139.1,143z"/>
			<path class="st0" d="M163.1,141.7c-0.2,0.1-0.2,0.3-0.2,0.5c0.1,0.2,0.3,0.2,0.5,0.2c0.2-0.1,0.2-0.3,0.2-0.5
				C163.5,141.7,163.3,141.6,163.1,141.7z"/>
			<path class="st0" d="M166.9,127.1c-0.1,0.5,0.2,1,0.7,1.1c0.5,0.1,1-0.2,1.1-0.7s-0.2-1-0.7-1.1
				C167.5,126.2,167,126.6,166.9,127.1z"/>
		</g>
	</g>
</g>
</svg>
